<?xml version="1.0" encoding="UTF-8"?>
<svg id="Calque_1" data-name="Calque 1" xmlns="http://www.w3.org/2000/svg" viewBox="0 0 5000 5000">
  <path d="M1900.57,2783.7c-2.25,21.71,1.49,49.4,17.21,66.62l-250.03-85.34,320.4-110.04c-45.66,28.45-82.34,72.61-87.58,128.76Z"/>
  <path d="M1732.13,3961.23c-92.82,0-118.28,86.09-118.28,151.22,0,23.2,2.25,48.65,4.49,74.85h230.57v-74.85h.75c0-65.13-25.45-151.22-117.53-151.22ZM2128.14,3497.1c-34.44-128.76-188.65-167.68-304.68-136.24-116.78,30.69-230.57,141.48-196.13,270.24,34.43,129.51,188.64,167.69,305.43,136.99,116.03-31.44,230.56-142.23,195.38-270.99ZM1996.39,3917.06c-134.75,0-139.99,168.44-140.74,192.39v77.85h279.23v-74.85s6.73-195.39-138.49-195.39ZM2128.14,3497.1c-34.44-128.76-188.65-167.68-304.68-136.24-116.78,30.69-230.57,141.48-196.13,270.24,34.43,129.51,188.64,167.69,305.43,136.99,116.03-31.44,230.56-142.23,195.38-270.99ZM1996.39,3917.06c-134.75,0-139.99,168.44-140.74,192.39v77.85h279.23v-74.85s6.73-195.39-138.49-195.39ZM1732.13,3961.23c-92.82,0-118.28,86.09-118.28,151.22,0,23.2,2.25,48.65,4.49,74.85h230.57v-74.85h.75c0-65.13-25.45-151.22-117.53-151.22ZM1732.13,3961.23c-92.82,0-118.28,86.09-118.28,151.22,0,23.2,2.25,48.65,4.49,74.85h230.57v-74.85h.75c0-65.13-25.45-151.22-117.53-151.22ZM2128.14,3497.1c-34.44-128.76-188.65-167.68-304.68-136.24-116.78,30.69-230.57,141.48-196.13,270.24,34.43,129.51,188.64,167.69,305.43,136.99,116.03-31.44,230.56-142.23,195.38-270.99ZM1996.39,3917.06c-134.75,0-139.99,168.44-140.74,192.39v77.85h279.23v-74.85s6.73-195.39-138.49-195.39ZM2128.14,3497.1c-34.44-128.76-188.65-167.68-304.68-136.24-116.78,30.69-230.57,141.48-196.13,270.24,34.43,129.51,188.64,167.69,305.43,136.99,116.03-31.44,230.56-142.23,195.38-270.99ZM1996.39,3917.06c-134.75,0-139.99,168.44-140.74,192.39v77.85h279.23v-74.85s6.73-195.39-138.49-195.39ZM1732.13,3961.23c-92.82,0-118.28,86.09-118.28,151.22,0,23.2,2.25,48.65,4.49,74.85h230.57v-74.85h.75c0-65.13-25.45-151.22-117.53-151.22ZM1732.13,3961.23c-92.82,0-118.28,86.09-118.28,151.22,0,23.2,2.25,48.65,4.49,74.85h230.57v-74.85h.75c0-65.13-25.45-151.22-117.53-151.22ZM2128.14,3497.1c-34.44-128.76-188.65-167.68-304.68-136.24-116.78,30.69-230.57,141.48-196.13,270.24,34.43,129.51,188.64,167.69,305.43,136.99,116.03-31.44,230.56-142.23,195.38-270.99ZM1996.39,3917.06c-134.75,0-139.99,168.44-140.74,192.39v77.85h279.23v-74.85s6.73-195.39-138.49-195.39ZM2128.14,3497.1c-34.44-128.76-188.65-167.68-304.68-136.24-116.78,30.69-230.57,141.48-196.13,270.24,34.43,129.51,188.64,167.69,305.43,136.99,116.03-31.44,230.56-142.23,195.38-270.99ZM1996.39,3917.06c-134.75,0-139.99,168.44-140.74,192.39v77.85h279.23v-74.85s6.73-195.39-138.49-195.39ZM1732.13,3961.23c-92.82,0-118.28,86.09-118.28,151.22,0,23.2,2.25,48.65,4.49,74.85h230.57v-74.85h.75c0-65.13-25.45-151.22-117.53-151.22ZM3367.22,2817.44c-258.18,301.06-538.87,465.4-928.71,585.25,98.42,276.88,84.09,541,4.98,818.64-6.48,22.74-28.27,11.5-28.36,13.78,2.97-70.22,86.68-280.13,61.64-530.26-14.92-149.08-50.95-288.17-127.82-411.39l-7-72.71c-22.97-238.37-31.15-495.1,47.55-738.2,83.56-258.09,201.57-493.99,353.03-720.32-59.59-17.68,15.86-107.5-111.55-179.05-137.45-77.2-282.56-94.87-336.79-221.21-6.77-15.77-5.66-59.11,2.82-74.16,8.18-14.52,34.16-28.22,54.47-32.23l141.13-27.87-92.61-138.14c-41.04-61.22-65.12-136.39-62.89-209.05,3.61-118.26,93.3-199.17,212.84-191.9,95.49,5.81,188.62,29.89,283.56,48.5,96.99,19.01,191.6,34.75,285.76,59.21,88.91,23.11,136.39,103.48,120.15,194.23-14.98,83.71-57.18,156.71-91.77,243.34,178.27-117.87,310.27-160.05,516.01-76.58-89.39-617.72-640.29-1051.71-1251.14-1006.19-600.71,44.77-1088.18,545.8-1087.51,1164.04l2.59,2395.17c.69,638.68,544.12,1137.89,1164.21,1141.78,625.75,3.92,1178.14-491.32,1179.47-1130.39l2.56-1219.3c-118.95,98.37-210.68,203.15-306.62,315.01ZM1616.1,915.21l416.97-142.98c56.14-19.46,101.81-38.18,101.81-49.41h6.73v87.59h-6.73c0-5.24-31.44-4.49-73.37,8.98l-17.96,5.99c-65.88,22.46-129.51,74.11-137,147.48-2.24,26.95,4.5,64.38,33.69,74.86l109.3,36.68c56.89,20.21,85.34,18.71,85.34-.75h6.73v63.63h-6.73c0-11.23-20.21-32.94-87.59-56.15l-390.02-133.25-41.17,14.23v-56.9ZM1615.35,1402.55h6.74c0,5.99,26.2,5.24,66.62-14.97l258.27-139.24-252.28-123.52c-13.47-5.99-72.61-33.68-72.61.75h-6.74v-64.38h6.74c0,11.23,20.21,30.7,87.58,63.63l244.8,119.78h122.76c49.41,0,57.65-12.73,57.65-17.22h6.73v87.59h-6.73c0-4.49-8.24-17.22-57.65-17.22h-109.29l-249.28,134.75c-49.41,34.43-96.57,62.88-96.57,81.59h-6.74v-111.54ZM1705.93,1540.28l65.88,17.97v6.74c-92.83,46.41-172.93,136.99-144.48,245.54,26.2,96.57,120.52,142.98,214.84,145.97v-14.97c0-119.77-28.44-250.78-28.44-250.78v-6.74h63.63v6.74s-28.45,131.01-28.45,250.78v15.72c28.45,0,56.9-2.99,83.85-10.48,250.78-67.37,251.52-390.02,28.44-434.18l1.5-6.74c243.29,48.66,244.79,424.45-15.72,494.07-142.23,38.18-287.46-46.41-325.64-187.9-27.7-102.55,8.98-207.36,84.59-271.74ZM2018.84,2432.61c69.62,0,116.04-17.22,116.04-28.45h6.73v63.63h-6.73c0-11.23-46.42-28.44-116.04-28.44h-339.86l-62.88,49.4v-68.12l443.17-348.84h-321.15c-69.62,0-115.28,17.21-115.28,28.44h-6.74v-63.63h6.74c0,11.23,45.66,28.45,115.28,28.45h329.38l74.11-58.39v68.12l-454.39,357.83h331.62ZM1940.24,2858.56l109.3,36.68c56.89,20.21,85.34,18.71,85.34-.75h6.73v63.63h-6.73c0-11.23-20.21-32.94-87.59-56.14l-390.02-133.25-41.17,14.22v-56.89l416.97-142.99c56.14-19.46,101.81-38.17,101.81-49.4h6.73v87.58h-6.73c0-5.24-31.44-4.49-73.37,8.99l-17.96,5.98c-65.88,22.46-129.51,74.11-137,147.48-2.24,26.95,4.5,64.38,33.69,74.86ZM1679.73,3302.47v6.74h-63.63v-426.7h63.63v6.73c-47.91,43.42-56.89,77.86-56.89,180.42h454.39c48.66,0,57.65-12.73,57.65-17.22h6.73v87.58h-6.73c0-4.49-8.99-17.21-57.65-17.21h-454.39c0,102.55,8.98,136.24,56.89,179.66ZM2141.61,4257.67h-6.73c0-4.49-8.99-17.21-57.65-17.21h-396.75c-49.41,0-57.64,12.72-57.64,17.21h-6.74v-6.73c-.75-44.17-8.24-95.82-8.24-138.49,0-151.97,51.66-203.62,124.27-203.62,61.39,0,107.8,37.43,120.53,142.98,11.97-106.3,57.64-187.9,143.73-187.9,116.78,0,145.22,115.29,145.22,248.54v145.22ZM1946.98,3821.24c-142.23,37.43-288.21-46.41-325.64-187.89-38.18-142.24,45.66-288.21,187.9-325.64,141.48-38.18,287.46,45.66,325.64,187.89,38.17,141.49-46.42,287.47-187.9,325.64ZM1996.39,3917.06c-134.75,0-139.99,168.44-140.74,192.39v77.85h279.23v-74.85s6.73-195.39-138.49-195.39ZM1823.46,3360.86c-116.78,30.69-230.57,141.48-196.13,270.24,34.43,129.51,188.64,167.69,305.43,136.99,116.03-31.44,230.56-142.23,195.38-270.99-34.44-128.76-188.65-167.68-304.68-136.24ZM1900.57,972.86c5.24-56.15,41.92-100.32,87.58-128.76l-320.4,110.04,250.03,85.34c-15.72-17.22-19.46-44.91-17.21-66.62ZM1732.13,3961.23c-92.82,0-118.28,86.09-118.28,151.22,0,23.2,2.25,48.65,4.49,74.85h230.57v-74.85h.75c0-65.13-25.45-151.22-117.53-151.22ZM1732.13,3961.23c-92.82,0-118.28,86.09-118.28,151.22,0,23.2,2.25,48.65,4.49,74.85h230.57v-74.85h.75c0-65.13-25.45-151.22-117.53-151.22ZM1996.39,3917.06c-134.75,0-139.99,168.44-140.74,192.39v77.85h279.23v-74.85s6.73-195.39-138.49-195.39ZM2128.14,3497.1c-34.44-128.76-188.65-167.68-304.68-136.24-116.78,30.69-230.57,141.48-196.13,270.24,34.43,129.51,188.64,167.69,305.43,136.99,116.03-31.44,230.56-142.23,195.38-270.99ZM1996.39,3917.06c-134.75,0-139.99,168.44-140.74,192.39v77.85h279.23v-74.85s6.73-195.39-138.49-195.39ZM2128.14,3497.1c-34.44-128.76-188.65-167.68-304.68-136.24-116.78,30.69-230.57,141.48-196.13,270.24,34.43,129.51,188.64,167.69,305.43,136.99,116.03-31.44,230.56-142.23,195.38-270.99ZM1732.13,3961.23c-92.82,0-118.28,86.09-118.28,151.22,0,23.2,2.25,48.65,4.49,74.85h230.57v-74.85h.75c0-65.13-25.45-151.22-117.53-151.22ZM1732.13,3961.23c-92.82,0-118.28,86.09-118.28,151.22,0,23.2,2.25,48.65,4.49,74.85h230.57v-74.85h.75c0-65.13-25.45-151.22-117.53-151.22ZM1996.39,3917.06c-134.75,0-139.99,168.44-140.74,192.39v77.85h279.23v-74.85s6.73-195.39-138.49-195.39ZM2128.14,3497.1c-34.44-128.76-188.65-167.68-304.68-136.24-116.78,30.69-230.57,141.48-196.13,270.24,34.43,129.51,188.64,167.69,305.43,136.99,116.03-31.44,230.56-142.23,195.38-270.99ZM1996.39,3917.06c-134.75,0-139.99,168.44-140.74,192.39v77.85h279.23v-74.85s6.73-195.39-138.49-195.39ZM2128.14,3497.1c-34.44-128.76-188.65-167.68-304.68-136.24-116.78,30.69-230.57,141.48-196.13,270.24,34.43,129.51,188.64,167.69,305.43,136.99,116.03-31.44,230.56-142.23,195.38-270.99ZM1732.13,3961.23c-92.82,0-118.28,86.09-118.28,151.22,0,23.2,2.25,48.65,4.49,74.85h230.57v-74.85h.75c0-65.13-25.45-151.22-117.53-151.22ZM2128.14,3497.1c-34.44-128.76-188.65-167.68-304.68-136.24-116.78,30.69-230.57,141.48-196.13,270.24,34.43,129.51,188.64,167.69,305.43,136.99,116.03-31.44,230.56-142.23,195.38-270.99ZM2128.14,3497.1c-34.44-128.76-188.65-167.68-304.68-136.24-116.78,30.69-230.57,141.48-196.13,270.24,34.43,129.51,188.64,167.69,305.43,136.99,116.03-31.44,230.56-142.23,195.38-270.99Z"/>
  <path d="M2412.98,3322.88c-20.68-20.54-33.83-43.35-40.14-71.08-55.84-245.45-42.39-490.41,31.78-731.73,81.3-264.51,202.53-504.72,356.54-734.48l66.63-8.31,845.59-263.56,1.62,511.15c-198.22,15.15-373.43,86.6-537.25,202.05-320.47,234.91-548.36,572.47-660.18,953.12-15.04,51.19-32.65,84.19-64.58,142.84Z"/>
  <path d="M3673.75,2456.04c-215.17,173.35-336.94,382.33-542.34,552.67-198.45,164.57-424.71,277.07-676.6,351.62,286.51-508.67,642.23-933.93,1216.16-1108.25l2.78,203.96Z"/>
  <path d="M2862.63,1588.97c-27.4,39-51.31,73.44-85.92,100.41,47.75-96.27,101.2-176.86,94.59-281.25-8.52-134.54-112.56-225.38-243.84-202.16l-102.11,18.06c-93.74-112.06-240.64-318.79-118.01-457.48,45.84-51.83,126.12-63.86,194.52-50.11l500.94,100.67c82.56,16.59,130.36,91.49,111.89,174.38-18.03,80.92-55.59,154.97-94.81,228.68-19.59,36.81-37.75,79.36-62.91,111.23-67.32,85.28-129.96,165.97-194.33,257.56Z"/>
  <path d="M2790.5,1765.67c6.75-48.71,34.91-76.46,60.48-108.68,86.35-91.29,153.79-190.36,224.58-294.7,118.87-175.18,388.89-290.45,595.02-161.86l2.65,290.97-882.73,274.28Z"/>
  <path d="M2941.17,2657.14c-180.28,171.5-307.76,368.26-446.5,569.67,117.14-522.47,611.21-1149.91,1177.8-1180.82l2.06,177.37c-279.74,82.62-518.54,229.4-733.36,433.78Z"/>
  <path d="M2732.96,1656.01c-123.65-165.94-294.45-131.94-403.61-269.23-21.1-26.54-32.7-88.22,7.8-97.67,59.36-13.85,117.57-23.3,178.82-32.77l171.16,242.88c30.69,43.54,48.41,95.21,45.84,156.8Z"/>
  <path d="M2769.26,1638.82c-21.44-71.59-43.74-129.69-82.09-184.08l-143.36-203.28c51.59-12.04,93.82-20.64,139.14-20.44,76.29.33,132.62,59.81,152.38,130.27,27.38,97.61-7.15,196.61-66.07,277.54Z"/>
</svg>