<?xml version="1.0" encoding="UTF-8"?>
<svg id="Calque_1" data-name="Calque 1" xmlns="http://www.w3.org/2000/svg" viewBox="0 0 5000 1852.86">
  <defs>
    <style>
      .cls-1 {
        fill: #1d1d1b;
      }

      .cls-2 {
        stroke-width: 22px;
      }

      .cls-2, .cls-3 {
        fill: none;
        stroke: #000;
        stroke-linecap: round;
        stroke-linejoin: round;
      }

      .cls-3 {
        stroke-width: 18px;
      }
    </style>
  </defs>
  <g>
    <path class="cls-1" d="M657.12,1148.17v-6.81c4.54,0,17.4-9.08,17.4-58.24v-400.87c0-49.92-12.86-58.24-17.4-58.24v-6.81h6.81c44.63-.76,96.81-8.32,139.93-8.32,153.54,0,205.73,52.19,205.73,125.56,0,62.02-37.82,108.92-144.47,121.77,107.4,12.1,189.85,58.24,189.85,145.22,0,117.99-116.48,146.73-251.11,146.73h-146.73ZM803.85,852.43v.76c65.8,0,152.79-25.72,152.79-118.75s-86.98-119.51-152.79-119.51c-23.45,0-49.16,2.27-75.64,4.54v232.96h75.64ZM806.88,859.24h-78.66v282.12h75.64s197.41,6.81,197.41-139.93c0-136.15-170.18-141.44-194.39-142.2Z"/>
    <path class="cls-1" d="M1352.98,622.5c143.71-38.57,291.2,46.14,329.02,189.85,38.57,142.95-46.14,290.44-189.85,329.02-142.95,38.58-290.44-46.89-329.02-189.85-37.82-143.71,46.89-291.2,189.85-329.02ZM1355.25,628.55c-130.85,34.79-169.43,190.6-138.41,308.6,31.77,117.24,143.71,232.96,273.8,197.41,130.09-34.79,169.43-190.6,137.66-307.84-31.01-117.99-142.95-232.96-273.05-198.17Z"/>
    <path class="cls-1" d="M2176.66,681.5h-6.81c-43.87-48.41-78.66-57.48-182.28-57.48v459.11c0,49.16,12.86,58.24,17.4,58.24v6.81h-88.49v-6.81c4.54,0,17.4-9.08,17.4-58.24v-459.11c-103.62,0-137.66,9.08-181.53,57.48h-6.81v-64.29h431.13v64.29Z"/>
    <path class="cls-1" d="M2490.55,1049.09c-22.69-66.56-74.88-130.85-149-138.41-27.23-2.27-65.05,4.54-75.64,34.04l-37.06,110.43c-20.42,57.48-18.91,86.22.76,86.22v6.81h-64.29v-6.81c11.35,0,33.28-20.42,56.73-88.49l134.63-394.06-14.37-41.6h57.48l144.46,421.29c19.67,56.73,38.58,102.87,49.92,102.87v6.81h-88.49v-6.81c5.29,0,4.54-31.77-9.08-74.12l-6.05-18.15ZM2274.23,922.02c17.4-15.88,45.38-19.67,67.32-17.4,56.73,5.29,101.35,42.36,130.09,88.49l-111.19-323.72-86.23,252.63Z"/>
    <path class="cls-1" d="M3132.71,1073.29l59,74.88h-68.83l-361.54-459.11v335.07c0,70.34,17.4,117.24,28.74,117.24v6.81h-64.29v-6.81c11.35,0,28.74-46.89,28.74-117.24v-343.39l-49.92-63.53h68.83l352.47,447.77v-324.48c0-70.34-17.4-116.48-28.74-116.48v-6.81h64.29v6.81c-11.35,0-28.74,46.14-28.74,116.48v332.8Z"/>
    <path class="cls-1" d="M3453.41,622.5c103.62-27.99,209.51,9.08,274.56,85.47l-18.15,66.56h-6.81c-46.89-93.79-138.42-174.72-248.09-145.98-97.57,26.47-144.47,121.77-147.49,217.08h15.13c121.02,0,253.38-28.74,253.38-28.74h6.81v64.29h-6.81s-132.36-28.74-253.38-28.74h-15.88c0,28.74,3.03,57.48,10.59,84.71,68.07,253.38,394.06,254.14,438.69,28.74l6.81,1.51c-49.16,245.82-428.86,247.33-499.2-15.88-38.57-143.71,46.89-290.44,189.85-329.02Z"/>
    <path class="cls-1" d="M4091.77,959.08v124.04c0,49.92,12.86,58.24,17.4,58.24v6.81h-88.49v-6.81c4.54,0,17.4-8.32,17.4-58.24v-110.43l-136.14-251.87c-34.79-49.92-63.54-97.57-82.44-97.57v-6.81h112.7v6.81c-6.05,0-5.29,26.47,15.13,67.32l140.68,260.95,124.8-254.89c6.05-13.61,34.04-73.37-.76-73.37v-6.81h65.05v6.81c-11.34,0-31.01,20.42-64.29,88.49l-121.02,247.33Z"/>
    <path class="cls-1" d="M4580.39,1049.09c-22.69-66.56-74.88-130.85-149-138.41-27.23-2.27-65.05,4.54-75.64,34.04l-37.06,110.43c-20.42,57.48-18.91,86.22.76,86.22v6.81h-64.29v-6.81c11.35,0,33.28-20.42,56.73-88.49l134.63-394.06-14.37-41.6h57.48l144.47,421.29c19.67,56.73,38.57,102.87,49.92,102.87v6.81h-88.49v-6.81c5.29,0,4.54-31.77-9.08-74.12l-6.05-18.15ZM4364.07,922.02c17.4-15.88,45.38-19.67,67.32-17.4,56.73,5.29,101.35,42.36,130.09,88.49l-111.19-323.72-86.22,252.63Z"/>
  </g>
  <g>
    <path class="cls-1" d="M1671.86,1459.27c.97,0,3.21-.03,6.69-.1,3.48-.07,7.39-.1,11.71-.1s8.64-.03,12.96-.1c4.32-.07,7.87-.1,10.66-.1,16.17,0,28.47,3.21,36.9,9.62,8.43,6.41,12.65,15.47,12.65,27.18,0,6.83-1.88,12.96-5.65,18.4-3.76,5.44-8.99,9.83-15.68,13.17,8.36,3.21,14.74,7.74,19.13,13.59,4.39,5.85,6.59,12.62,6.59,20.28,0,11.99-4.53,21.64-13.59,28.96-9.06,7.32-22.79,10.98-41.19,10.98h-12.13c-4.32,0-8.44-.04-12.34-.1-3.9-.07-7.35-.1-10.35-.1h-6.38v-141.55ZM1696.74,1519.48h16.1c8.78,0,15.05-2.02,18.82-6.06,3.76-4.04,5.65-8.99,5.65-14.84,0-2.65-.42-5.29-1.25-7.94-.84-2.65-2.27-5.02-4.29-7.11-2.02-2.09-4.74-3.76-8.15-5.02-3.42-1.25-7.7-1.88-12.86-1.88h-8.05c-2.3,0-4.29.07-5.96.21v42.65ZM1696.74,1583.04h17.98c9.48,0,16.27-2.12,20.39-6.38,4.11-4.25,6.17-9.58,6.17-15.99,0-2.93-.45-5.78-1.36-8.57-.91-2.79-2.48-5.3-4.7-7.53-2.23-2.23-5.19-4-8.89-5.33-3.69-1.32-8.33-1.99-13.9-1.99h-8.89c-2.58,0-4.84.07-6.79.21v45.58Z"/>
    <path class="cls-1" d="M1873.4,1462.41c7.39,3.34,13.49,8.08,18.29,14.22,4.81,6.14,8.33,13.63,10.56,22.48,2.23,8.85,3.35,18.78,3.35,29.79s-1.22,20.8-3.66,29.79c-2.44,8.99-6.2,16.69-11.29,23.1-5.09,6.41-11.5,11.4-19.23,14.95-7.74,3.55-16.9,5.33-27.49,5.33s-19.41-1.57-26.87-4.71c-7.46-3.14-13.59-7.74-18.4-13.8-4.81-6.06-8.33-13.41-10.56-22.06-2.23-8.64-3.35-18.54-3.35-29.69s1.22-20.87,3.66-30c2.44-9.13,6.2-17,11.29-23.63,5.09-6.62,11.53-11.74,19.34-15.37,7.8-3.62,17-5.44,27.6-5.44s19.37,1.67,26.76,5.02ZM1828.45,1480.7c-4.04,2.72-7.32,6.45-9.83,11.19-2.51,4.74-4.29,10.32-5.33,16.73-1.05,6.41-1.57,13.38-1.57,20.91,0,7.11.49,13.87,1.46,20.28.97,6.41,2.75,12.06,5.33,16.93,2.58,4.88,6.13,8.78,10.66,11.71,4.53,2.93,10.42,4.39,17.67,4.39,5.99,0,11.05-1.32,15.16-3.97,4.11-2.65,7.42-6.27,9.93-10.87s4.29-10.07,5.33-16.41c1.05-6.34,1.57-13.21,1.57-20.59s-.49-13.94-1.46-20.49c-.98-6.55-2.75-12.34-5.33-17.35-2.58-5.02-6.14-9.02-10.66-12.02-4.53-3-10.42-4.5-17.67-4.5-6.13,0-11.22,1.36-15.26,4.08Z"/>
    <path class="cls-1" d="M2009.51,1459.27l-3.14,18.82h-35.12v122.73h-24.67v-122.73h-35.75v-18.82h98.68Z"/>
    <path class="cls-1" d="M2052.58,1459.27h19.65l54.57,141.55h-26.55l-12.96-37.01h-51.01l-13.38,37.01h-24.67l54.36-141.55ZM2080.81,1545.41c-4.46-12.54-8.29-23.94-11.5-34.18-3.21-10.25-5.65-18.29-7.32-24.15-1.95,6.27-4.53,14.5-7.74,24.67-3.21,10.18-6.97,21.4-11.29,33.66h37.84Z"/>
    <path class="cls-1" d="M2224.03,1459.27h24.88v141.75h-20.7l-47.67-74.43c-2.65-4.04-5.54-8.6-8.68-13.69-3.14-5.09-6.1-9.79-8.89-14.11.42,4.46.8,9.13,1.15,14.01.35,4.88.52,9.55.52,14.01l.63,74.01h-24.88v-141.96h19.44l49.13,73.6c2.79,4.04,5.61,8.33,8.47,12.86,2.85,4.53,5.68,8.89,8.47,13.07-.28-4.46-.56-8.96-.84-13.49-.28-4.53-.42-8.4-.42-11.6l-.63-74.01Z"/>
    <path class="cls-1" d="M2278.18,1459.27h24.88v141.55h-24.88v-141.55Z"/>
    <path class="cls-1" d="M2410.1,1487.7c-3.35-3.62-6.87-6.38-10.56-8.26-3.69-1.88-7.98-2.82-12.86-2.82-5.99,0-11.05,1.36-15.16,4.08-4.11,2.72-7.42,6.48-9.93,11.29-2.51,4.81-4.32,10.42-5.44,16.83-1.12,6.41-1.67,13.31-1.67,20.7s.52,14.29,1.57,20.7c1.05,6.41,2.85,12.06,5.44,16.94,2.58,4.88,6.06,8.71,10.45,11.5,4.39,2.79,9.93,4.18,16.62,4.18,3.2,0,6.27-.28,9.2-.84,2.93-.55,5.61-1.15,8.05-1.78,2.44-.63,4.46-1.22,6.06-1.78,1.6-.56,2.61-.91,3.03-1.05l5.85,17.56-2.72,1.05c-1.81.7-4.36,1.5-7.63,2.4-3.28.91-7.18,1.74-11.71,2.51-4.53.76-9.51,1.15-14.95,1.15-18.68,0-32.72-5.96-42.13-17.88-9.41-11.92-14.11-29.38-14.11-52.37,0-11.01,1.25-21.08,3.76-30.21,2.51-9.13,6.31-16.97,11.4-23.52,5.09-6.55,11.5-11.64,19.23-15.26,7.74-3.62,16.83-5.44,27.28-5.44,8.36,0,15.23,1.54,20.59,4.6,5.36,3.07,9.72,6.55,13.07,10.45l-12.75,15.26Z"/>
    <path class="cls-1" d="M2480.35,1459.27h19.65l54.57,141.55h-26.55l-12.96-37.01h-51.02l-13.38,37.01h-24.67l54.36-141.55ZM2508.58,1545.41c-4.46-12.54-8.29-23.94-11.5-34.18-3.21-10.25-5.65-18.29-7.32-24.15-1.95,6.27-4.53,14.5-7.74,24.67-3.21,10.18-6.97,21.4-11.29,33.66h37.84Z"/>
    <path class="cls-1" d="M2568.16,1459.27h24.88v122.73h52.9v18.82h-77.78v-141.55Z"/>
    <path class="cls-1" d="M2713.89,1459.27c.97,0,3.2-.03,6.69-.1,3.48-.07,7.39-.1,11.71-.1s8.64-.03,12.96-.1c4.32-.07,7.87-.1,10.66-.1,16.17,0,28.47,3.21,36.9,9.62,8.43,6.41,12.65,15.47,12.65,27.18,0,6.83-1.88,12.96-5.64,18.4-3.76,5.44-8.99,9.83-15.68,13.17,8.36,3.21,14.74,7.74,19.13,13.59,4.39,5.85,6.59,12.62,6.59,20.28,0,11.99-4.53,21.64-13.59,28.96-9.06,7.32-22.79,10.98-41.19,10.98h-12.13c-4.32,0-8.43-.04-12.34-.1-3.9-.07-7.35-.1-10.35-.1h-6.38v-141.55ZM2738.77,1519.48h16.1c8.78,0,15.05-2.02,18.82-6.06,3.76-4.04,5.65-8.99,5.65-14.84,0-2.65-.42-5.29-1.25-7.94-.84-2.65-2.27-5.02-4.29-7.11-2.02-2.09-4.74-3.76-8.15-5.02-3.42-1.25-7.7-1.88-12.86-1.88h-8.05c-2.3,0-4.29.07-5.96.21v42.65ZM2738.77,1583.04h17.98c9.48,0,16.27-2.12,20.39-6.38,4.11-4.25,6.17-9.58,6.17-15.99,0-2.93-.45-5.78-1.36-8.57-.91-2.79-2.48-5.3-4.7-7.53-2.23-2.23-5.19-4-8.89-5.33-3.69-1.32-8.33-1.99-13.9-1.99h-8.89c-2.58,0-4.84.07-6.79.21v45.58Z"/>
    <path class="cls-1" d="M2832.01,1459.27h84.05v18.82h-59.17v39.52h48.71l-3.14,19.03h-45.58v45.37h62.3v18.82h-87.18v-141.55Z"/>
    <path class="cls-1" d="M2977.94,1459.27h19.65l54.57,141.55h-26.55l-12.96-37.01h-51.01l-13.38,37.01h-24.67l54.36-141.55ZM3006.17,1545.41c-4.46-12.54-8.29-23.94-11.5-34.18-3.21-10.25-5.65-18.29-7.32-24.15-1.95,6.27-4.53,14.5-7.74,24.67-3.21,10.18-6.97,21.4-11.29,33.66h37.84Z"/>
    <path class="cls-1" d="M3084.16,1459.27v87.6c0,12.96,2.72,22.2,8.15,27.7,5.44,5.51,12.82,8.26,22.16,8.26s16.48-3.17,21.01-9.51c4.53-6.34,6.79-15.16,6.79-26.45v-87.6h24.88v89.49c0,7.25-.94,14.08-2.82,20.49-1.88,6.41-4.99,12.06-9.3,16.93-4.32,4.88-10.04,8.75-17.14,11.6-7.11,2.86-15.82,4.29-26.13,4.29s-18.16-1.43-24.78-4.29c-6.62-2.86-11.99-6.72-16.1-11.6-4.11-4.88-7.04-10.52-8.78-16.93-1.74-6.41-2.61-13.24-2.61-20.49v-89.49h24.67Z"/>
    <path class="cls-1" d="M3280.48,1459.27l-3.14,18.82h-35.13v122.73h-24.67v-122.73h-35.75v-18.82h98.68Z"/>
    <path class="cls-1" d="M3328.77,1546.66l-43.91-87.39h26.97l29.69,64.19,30.32-64.19h26.34l-44.53,88.44v53.11h-24.88v-54.15Z"/>
  </g>
  <g>
    <path class="cls-3" d="M692.93,643.17c-18.73-29.92-149.44,25.62-181.38,41.48-41.34,20.52-69.58,2.15-66.92-21.39,4.18-36.94,49.29-119.03,74.11-142.07,25.18-23.38,75.24-9.6,101,9.29,25.76,18.88,73.19,112.69,73.19,112.69Z"/>
    <path class="cls-2" d="M695.61,637.35c-1.64-7.15-54.23-149.36-65.08-243.87-5.21-45.38,18.49-130.23,67.6-163.26,50.74-34.12,81.75-25.91,102.25-16.99,20.5,8.92,44.95,28.52,37.44,55.57-7.51,27.05-138.12,386.43-142.22,368.55Z"/>
    <path class="cls-2" d="M688.45,634.5c-33.59-74.08-244.23-18.17-331.03-58.04-44.82-20.59-86.1-63.16-50.91-111.93,35.19-48.77,144.3-145.36,181.27-167.62,34.45-20.74,70.61-5.94,90.53,27.81,19.92,33.74,110.14,309.78,110.14,309.78Z"/>
  </g>
</svg>