<?xml version="1.0" encoding="UTF-8"?>
<svg id="Calque_1" data-name="Calque 1" xmlns="http://www.w3.org/2000/svg" viewBox="0 0 5000 5000">
  <path d="M1833.84,1092.77c-54.32-109.12-100.25-223.69-180.3-321.6-83.58-102.22-221.69-133.86-329.61-45.54l-525.96,430.43c-133.96,109.63-239.09,265.34-127.45,433.18,126.89,190.76,364.46,179.53,574.09,200.58l-97.57,178.8c-14.58,26.72-22.2,72.42-6.75,101.99,12.37,23.7,52.11,51.99,85.88,60.11,193.82,46.59,350.32-120.42,546.75-179.02,54.59-16.29,154.61-27.29,191.21,25.14,41.08,58.85,48.06,146.97,48.07,223.16l.48,2333.51c.02,73.17-10.26,132.15-17.83,208.4C586.8,4418.88-175.44,2908.23,390.88,1592.68,955.53,281.01,2567.01-205.49,3765.03,582.85c1184.28,779.29,1393.54,2454.57,398.81,3501.07,9.5-392.94-254.59-617.65-575.9-738.91-147.05-55.5-292.96-80.76-454.54-114.29,158.69-31.78,300.38-65.89,436.42-132.94,236.31-116.46,355.68-343.49,337.11-604.06-26.27-368.61-296-543.88-633.73-612.19-250.82-50.73-501.1-55.95-756.85-38.14l-358.62,24.97,459.92-1154c37.41-93.86,4.19-187.32-76.91-237.43-242.18-149.64-528.07,34.82-641.44,283.96-46.36,101.88-56.53,206.58-65.46,331.89Z"/>
  <path d="M3608.48,2528.93c10.16,510.15-446.82,686.81-891.45,683.2l-397.02-3.22-.03-1317.21,372.92-24.86c196.9-13.13,388.75,25.21,563.92,107.11,223.59,104.53,346.79,311.21,351.65,554.98Z"/>
  <path d="M3846.5,3911.7c32.54,180.6,9.2,347.78-77.97,503.55-427.92,284.62-936.3,416.21-1448.68,374.46l.03-1539.54,516.03-.79c220.36,21.89,430.22,58.18,623.65,159.62,200.98,102.76,349.98,273.53,386.95,502.71Z"/>
  <path d="M1662.21,1483.63c-214.68-60.26-315.48,104.07-395.56,269.15-193.38,1.14-539.04-13.12-598.06-260.7-22.21-93.18,24.07-196.93,99.94-259.85l563.58-467.35c46.35-38.44,115-63.93,172.73-49.59,74.51,18.52,133.47,75.05,169.93,142.86,252.65,469.85,160.87,439.15,309.78,922.1,10.62,34.43,20.4,70.69,11.67,101.35-80.77-171.8-129.71-340.61-334.04-397.97Z"/>
  <path d="M2146.23,1828.75c-13.48,33.72-35.93,49.34-65.23,47.86-18.52-.93-39.72-31.34-43.49-57.98-26.85-189.67-73.24-363.4-128.49-545.72-36.14-119.29-28.74-249.96-3.8-369.93,60.06-288.8,348.62-522.42,605.35-400.57,80.06,38,117.46,120.78,82.88,207.32l-447.22,1119.02Z"/>
  <path d="M1923.51,1906.74c-280.88,14.94-322.3,129.24-549.05,196.16-55.27,16.31-115.35,13.78-163.68-9.79-34.51-16.83-49.37-57.96-32.72-88.25l117.79-214.32,364.95,22.74c92.84,5.79,186.66,23.49,262.7,93.46Z"/>
  <path d="M1669.03,1782.16l-354.87-23.69c39.89-77.67,81.59-146.84,142.54-206.1,96.9-59.65,213.27-43.87,304.84,23.1,95.61,69.92,150.06,175.47,182.82,290.44-85.19-44.7-172.65-76.89-275.32-83.74Z"/>
</svg>